<?xml version="1.0" encoding="utf-8"?>
<!-- Generator: Adobe Illustrator 17.0.0, SVG Export Plug-In . SVG Version: 6.00 Build 0)  -->
<!DOCTYPE svg PUBLIC "-//W3C//DTD SVG 1.1//EN" "http://www.w3.org/Graphics/SVG/1.1/DTD/svg11.dtd">
<svg version="1.1" xmlns="http://www.w3.org/2000/svg" xmlns:xlink="http://www.w3.org/1999/xlink" x="0px" y="0px" width="223px"
	 height="30px" viewBox="0 0 223 30" enable-background="new 0 0 223 30" xml:space="preserve">
<g id="Слой_1">
	<g>
		<g>
			<path fill="#FFFFFF" d="M51.9285774,27.6762886l11.43927-25.8119221h2.5298729l11.4759369,25.8119221H74.513916
				l-3.1897659-7.0762444h-13.455925l-3.1164284,7.0762444H51.9285774z M58.7848053,18.2168503h11.6592865L64.6144485,5.2741466
				L58.7848053,18.2168503z"/>
			<path fill="#FFFFFF" d="M80.1241379,26.2831593v-2.7132149c2.1266556,1.4297981,4.5465164,2.1631794,7.2595901,2.1631794
				c3.0432358,0,4.8763885-1.0634041,4.8763885-2.8232231c0-0.9533958-0.5132141-1.4297981-1.2465973-1.8698273
				c-0.3300247-0.2566833-1.4299469-0.5500355-1.8698273-0.6600437c-0.2200165-0.0733376-0.6233749-0.1833458-1.2099304-0.2933521
				c-0.5500336-0.146677-0.9532471-0.2566833-1.2099304-0.2933521c-4.2164993-1.0631084-6.1963348-2.3098564-6.1963348-5.3530941
				c0-3.0430889,2.6032104-4.913064,7.112915-4.913064c2.6765442,0,4.8030548,0.5133677,6.4530106,1.576622v2.6032085
				c-2.0166473-1.2099314-4.143158-1.7966366-6.3430099-1.7966366c-3.0430832,0-4.5463715,1.0267344-4.5463715,2.6032085
				c0,0.8432407,0.5132217,1.576623,1.3566055,1.9799814c0.5865631,0.1831989,0.7332382,0.329874,1.4298019,0.5132198
				l0.8067169,0.2200146c0.3300247,0.1100063,1.4666138,0.3666897,1.759819,0.4033604
				c4.0698242,0.9900646,6.4163513,2.2731857,6.4163513,5.3164234c0,1.5764751-0.6967163,2.8598919-2.1265106,3.7763233
				c-1.39328,0.9167271-3.1899109,1.393425-5.3897629,1.393425C84.5239792,28.1163177,81.5907516,27.2729282,80.1241379,26.2831593z
				"/>
			<path fill="#FFFFFF" d="M101.6939774,2.0110426v15.2524118l8.4327011-7.296258h3.593277l-9.3494339,7.9929705
				l10.6692276,9.7161217h-3.776329l-9.5694427-8.7263527v8.7263527H99.0541V2.0110426H101.6939774z"/>
			<path fill="#FFFFFF" d="M118.6072922,27.6762886V2.0110426h2.7132111v23.2087135h14.3358383v2.4565334H118.6072922z"/>
			<path fill="#FFFFFF" d="M140.2689514,25.5131092c-1.8698273-1.7231522-2.7865448-3.9596691-2.7865448-6.672884
				c0-2.6766949,0.8433838-4.876544,2.4931946-6.6365108c1.6864777-1.7964888,3.8499603-2.6765471,6.4895325-2.6765471
				c5.9398041,0,8.2863312,5.2064171,8.2863312,9.2030497v0.7330856h-14.5558472
				c0.2933502,3.8132877,3.2999268,6.2698212,7.5529327,6.2698212c2.0531769,0,3.959671-0.5500374,5.6828308-1.6498127v2.3465252
				c-1.4664764,1.1364441-3.5196381,1.6864815-6.1961975,1.6864815
				C144.4853058,28.1163177,142.1387787,27.2362595,140.2689514,25.5131092z M152.0749207,17.3001232
				c-0.073349-1.3566074-0.5867157-2.6032076-1.5398102-3.7031326c-0.9167328-1.1365929-2.3098602-1.6866293-4.1799774-1.6866293
				c-1.7964935,0-3.2262878,0.5500364-4.326355,1.6132917c-1.0631104,1.0632553-1.6864929,2.3098555-1.7964935,3.7764702
				H152.0749207z"/>
			<path fill="#FFFFFF" d="M160.3396454,25.4764404c-1.7964783-1.7964897-2.6765442-3.9963379-2.6765442-6.672884
				c0-2.6400261,0.9167328-4.8398752,2.7132263-6.5998421c1.7964783-1.7964888,4.0696716-2.6765471,6.7462158-2.6765471
				c2.0531769,0,3.8499603,0.4400291,5.3530884,1.2832699v2.4565325c-1.6131439-0.9165792-3.2632446-1.3566084-4.9864044-1.3566084
				c-2.0164948,0-3.7396393,0.6600437-5.096405,1.9799824c-1.3564606,1.2832699-2.0164948,2.9330816-2.0164948,4.9498816
				c0,1.9798336,0.6600342,3.6296463,2.0164948,4.9497318c1.3567657,1.283123,3.0799103,1.9431667,5.096405,1.9431667
				c1.9798431,0,3.7396545-0.5133686,5.3164368-1.540102v2.4198627c-1.650116,0.9900646-3.5566101,1.5034332-5.7197876,1.5034332
				C164.4093323,28.1163177,162.1361389,27.2362595,160.3396454,25.4764404z"/>
			<path fill="#FFFFFF" d="M179.5190582,22.6532173V12.2770519h-4.1796875V9.9671965h4.1796875V4.5042439h2.6398773v5.4629526
				h6.1961823v2.3098555h-6.1961823v9.5694447c0,1.393425,0.2200165,2.383194,0.6964111,2.9332314
				c0.4766998,0.5500355,1.2834167,0.8433876,2.383194,0.8433876c1.1000824,0,2.0531769-0.2566833,2.8965607-0.7333813v2.4198627
				c-0.77005,0.5500374-1.9798279,0.8067207-3.6296387,0.8067207
				C181.1322021,28.1163177,179.5190582,25.9898071,179.5190582,22.6532173z"/>
			<path fill="#FFFFFF" d="M199.6772919,9.5271673c2.8232117,0,5.096405,0.9167271,6.8928986,2.7498846
				c1.7964783,1.7966366,2.6765442,3.9964848,2.6765442,6.5631733c0,2.5665379-0.8800659,4.7663879-2.6765442,6.5628757
				c-1.7964935,1.7964897-4.0696869,2.7132168-6.8928986,2.7132168c-2.8232269,0-5.0964203-0.9167271-6.8928986-2.7132168
				c-1.7964935-1.7964878-2.6765442-3.9963379-2.6765442-6.5628757c0-2.5666885,0.8800507-4.7665367,2.6765442-6.5631733
				C194.5808716,10.4438944,196.8540649,9.5271673,199.6772919,9.5271673z M204.5903473,13.8903437
				c-1.2831116-1.3199387-2.9332275-1.9799824-4.9130554-1.9799824c-1.9798431,0-3.6296539,0.6600437-4.9130707,1.9799824
				c-1.2831268,1.3199387-1.943161,2.9697504-1.943161,4.9498816c0,1.9431648,0.6600342,3.5929775,1.943161,4.913063
				c1.2834167,1.3197918,2.9332275,1.9798355,4.9130707,1.9798355c1.9798279,0,3.6299438-0.6600437,4.9130554-1.9798355
				c1.2831268-1.3200855,1.9431763-2.9698982,1.9431763-4.913063
				C206.5335236,16.8600941,205.8734741,15.2102823,204.5903473,13.8903437z"/>
			<path fill="#FFFFFF" d="M213.3205414,27.6762886V9.9671965h2.6398773v3.3731108
				C217.2802124,11.0304518,220.1034393,9.5271673,223,9.5271673v2.6765471c-0.8067169,0-1.5401001,0.1100073-2.2001495,0.3300209
				c-2.3465271,0.5865574-4.1063385,2.2365179-4.8394318,3.959816v11.1827374H213.3205414z"/>
		</g>
		<path fill="#D2414A" d="M16.6529808,14.8460007c0,2.0104942-1.6356106,3.6461048-3.6461048,3.6461048
			s-3.6461048-1.6356106-3.6461048-3.6461048c0-2.0103683,1.6356096-3.645977,3.6461048-3.645977
			S16.6529808,12.8356323,16.6529808,14.8460007z"/>
		<circle fill="#476B8F" cx="34.086483" cy="15.1346893" r="3.6461043"/>
		<path fill="#476B8F" d="M13.0010147,7.5791006c2.4270983,0,3.330986,0.9267483,7.7532597,3.4095173
			c0,0,3.5253792,1.9792223,6.2170334,3.4903793c0.1877003-2.0621147,1.2503757-3.8710308,2.8148899-5.0516882
			c-2.0659771-1.1439829-4.42416-2.4497619-4.42416-2.4497619c-4.1283932-2.4152775-7.6765099-5.1131806-12.3610229-5.1131806
			C5.8322001,1.8643664,0,7.6965666,0,14.8652382c0,7.1688137,5.8322001,13.0010319,13.0010147,13.0010319
			c1.5779724,0,2.8573666-1.2792702,2.8573666-2.8573666c0-1.5781155-1.2793941-2.8573666-2.8573666-2.8573666
			c-4.0176048,0-7.2862802-3.2686768-7.2862802-7.2862988C5.7147346,10.8477764,8.9834099,7.5791006,13.0010147,7.5791006z"/>
		<path fill="#D2414A" d="M34.0923386,2.1337295c-1.5779724,0-2.8573666,1.2792699-2.8573666,2.857367
			c0,1.5781155,1.2793941,2.8573675,2.8573666,2.8573675c4.0176048,0,7.2862816,3.2686749,7.2862816,7.2862978
			c0,4.0174618-3.2686768,7.2861366-7.2862816,7.2861366c-2.4270973,0-3.330986-0.9267464-7.7532597-3.4095154
			c0,0-3.5267334-1.9799709-6.218565-3.4912348c-0.1935387,2.0580378-1.2625523,3.8651209-2.8307686,5.0428934
			c2.0701256,1.1462803,4.4415703,2.4594116,4.4415703,2.4594116c4.1283932,2.4152775,7.6765099,5.1131802,12.3610229,5.1131802
			c7.1688156,0,13.0010147-5.8321991,13.0010147-13.0008717C47.0933533,7.9659476,41.2611542,2.1337295,34.0923386,2.1337295z"/>
	</g>
</g>
<g id="Слой_2">
</g>
</svg>
